<mxfile host="app.diagrams.net" modified="2022-10-02T18:32:53.648Z" agent="5.0 (X11)" etag="rFV4NXnF035gCZEAFdgq" version="20.4.0" type="github">
  <diagram id="C5RBs43oDa-KdzZeNtuy" name="Page-1">
    <mxGraphModel dx="1008" dy="723" grid="1" gridSize="10" guides="1" tooltips="1" connect="1" arrows="1" fold="1" page="1" pageScale="1" pageWidth="827" pageHeight="1169" math="0" shadow="0">
      <root>
        <mxCell id="WIyWlLk6GJQsqaUBKTNV-0" />
        <mxCell id="WIyWlLk6GJQsqaUBKTNV-1" parent="WIyWlLk6GJQsqaUBKTNV-0" />
        <mxCell id="Urx0WMwrFYBLJ4eI_fLI-4" value="ProcessDataReader&#xa;" style="swimlane;fontStyle=1;align=center;verticalAlign=top;childLayout=stackLayout;horizontal=1;startSize=26;horizontalStack=0;resizeParent=1;resizeParentMax=0;resizeLast=0;collapsible=1;marginBottom=0;" vertex="1" parent="WIyWlLk6GJQsqaUBKTNV-1">
          <mxGeometry x="320" y="330" width="160" height="86" as="geometry" />
        </mxCell>
        <mxCell id="Urx0WMwrFYBLJ4eI_fLI-5" value="+ field: type" style="text;strokeColor=none;fillColor=none;align=left;verticalAlign=top;spacingLeft=4;spacingRight=4;overflow=hidden;rotatable=0;points=[[0,0.5],[1,0.5]];portConstraint=eastwest;" vertex="1" parent="Urx0WMwrFYBLJ4eI_fLI-4">
          <mxGeometry y="26" width="160" height="26" as="geometry" />
        </mxCell>
        <mxCell id="Urx0WMwrFYBLJ4eI_fLI-6" value="" style="line;strokeWidth=1;fillColor=none;align=left;verticalAlign=middle;spacingTop=-1;spacingLeft=3;spacingRight=3;rotatable=0;labelPosition=right;points=[];portConstraint=eastwest;strokeColor=inherit;" vertex="1" parent="Urx0WMwrFYBLJ4eI_fLI-4">
          <mxGeometry y="52" width="160" height="8" as="geometry" />
        </mxCell>
        <mxCell id="Urx0WMwrFYBLJ4eI_fLI-7" value="+ method(type): type" style="text;strokeColor=none;fillColor=none;align=left;verticalAlign=top;spacingLeft=4;spacingRight=4;overflow=hidden;rotatable=0;points=[[0,0.5],[1,0.5]];portConstraint=eastwest;" vertex="1" parent="Urx0WMwrFYBLJ4eI_fLI-4">
          <mxGeometry y="60" width="160" height="26" as="geometry" />
        </mxCell>
        <mxCell id="Urx0WMwrFYBLJ4eI_fLI-8" value="«interface»&lt;br&gt;&lt;div&gt;&lt;b&gt;IReader&lt;/b&gt;&lt;/div&gt;" style="html=1;" vertex="1" parent="WIyWlLk6GJQsqaUBKTNV-1">
          <mxGeometry x="345" y="490" width="110" height="50" as="geometry" />
        </mxCell>
        <mxCell id="Urx0WMwrFYBLJ4eI_fLI-9" value="" style="endArrow=open;endFill=1;endSize=12;html=1;rounded=0;exitX=0.455;exitY=1.071;exitDx=0;exitDy=0;exitPerimeter=0;entryX=0.442;entryY=-0.06;entryDx=0;entryDy=0;entryPerimeter=0;" edge="1" parent="WIyWlLk6GJQsqaUBKTNV-1" source="Urx0WMwrFYBLJ4eI_fLI-7" target="Urx0WMwrFYBLJ4eI_fLI-8">
          <mxGeometry width="160" relative="1" as="geometry">
            <mxPoint x="360" y="450" as="sourcePoint" />
            <mxPoint x="520" y="450" as="targetPoint" />
          </mxGeometry>
        </mxCell>
        <mxCell id="Urx0WMwrFYBLJ4eI_fLI-10" value="&lt;p style=&quot;margin:0px;margin-top:4px;text-align:center;&quot;&gt;ProcReader&lt;/p&gt;&lt;hr size=&quot;1&quot;&gt;&lt;p style=&quot;margin:0px;margin-left:4px;&quot;&gt;+ field: Type&lt;/p&gt;&lt;hr size=&quot;1&quot;&gt;&lt;p style=&quot;margin:0px;margin-left:4px;&quot;&gt;+ method(): Type&lt;/p&gt;" style="verticalAlign=top;align=left;overflow=fill;fontSize=12;fontFamily=Helvetica;html=1;" vertex="1" parent="WIyWlLk6GJQsqaUBKTNV-1">
          <mxGeometry x="320" y="620" width="160" height="100" as="geometry" />
        </mxCell>
        <mxCell id="Urx0WMwrFYBLJ4eI_fLI-11" value="Extends" style="endArrow=block;endSize=16;endFill=0;html=1;rounded=0;entryX=0.5;entryY=1;entryDx=0;entryDy=0;" edge="1" parent="WIyWlLk6GJQsqaUBKTNV-1" source="Urx0WMwrFYBLJ4eI_fLI-10" target="Urx0WMwrFYBLJ4eI_fLI-8">
          <mxGeometry width="160" relative="1" as="geometry">
            <mxPoint x="360" y="660" as="sourcePoint" />
            <mxPoint x="520" y="660" as="targetPoint" />
          </mxGeometry>
        </mxCell>
      </root>
    </mxGraphModel>
  </diagram>
</mxfile>
